<?xml version="1.0" encoding="UTF-8" standalone="no"?>
<svg
   width="270"
   height="92"
   viewBox="0 0 270 92"
   version="1.1"
   id="svg207"
   sodipodi:docname="logo.svg"
   inkscape:version="1.2.1 (9c6d41e, 2022-07-14)"
   xmlns:inkscape="http://www.inkscape.org/namespaces/inkscape"
   xmlns:sodipodi="http://sodipodi.sourceforge.net/DTD/sodipodi-0.dtd"
   xmlns="http://www.w3.org/2000/svg"
   xmlns:svg="http://www.w3.org/2000/svg">
  <sodipodi:namedview
     id="namedview209"
     pagecolor="#ffffff"
     bordercolor="#000000"
     borderopacity="0.25"
     inkscape:showpageshadow="2"
     inkscape:pageopacity="0.0"
     inkscape:pagecheckerboard="0"
     inkscape:deskcolor="#d1d1d1"
     showgrid="false"
     inkscape:zoom="2.5652174"
     inkscape:cx="142.09322"
     inkscape:cy="76.601695"
     inkscape:window-width="1440"
     inkscape:window-height="785"
     inkscape:window-x="0"
     inkscape:window-y="25"
     inkscape:window-maximized="1"
     inkscape:current-layer="svg207" />
  <defs
     id="defs169">
    <style
       id="style152">.a{fill:none;clip-rule:evenodd;}.b{clip-path:url(#a);}.c{fill:url(#b);}.d{fill:#363636;opacity:0.5;}.e{fill:#fff;}.f{fill:#212121;}.g{fill:url(#c);}</style>
    <clipPath
       id="a">
      <path
         class="a"
         d="M30.872.359,77.325,20.011a4.5,4.5,0,0,1,2.724,3.658l4.12,38.121A4.49,4.49,0,0,1,82.052,66.1L41,91.329a4.532,4.532,0,0,1-5.323-.421L1.567,61.608a4.483,4.483,0,0,1-1.16-5.27L25,2.632A4.525,4.525,0,0,1,30.872.359Z"
         transform="translate(0 0)"
         id="path154" />
    </clipPath>
    <radialGradient
       id="b"
       cx="-0.18001317"
       cy="0.72005269"
       r="120.3388"
       gradientTransform="scale(0.95330807,1.0489788)"
       gradientUnits="userSpaceOnUse"
       fx="-0.18001317"
       fy="0.72005269">
      <stop
         offset="0"
         stop-color="#4d81d5"
         id="stop157" />
      <stop
         offset="0.515"
         stop-color="#2764c7"
         id="stop159" />
      <stop
         offset="1"
         stop-color="#0047ba"
         id="stop161" />
    </radialGradient>
    <radialGradient
       id="c"
       cx="840.77272"
       cy="197.86288"
       r="9.0350046"
       gradientTransform="matrix(1.0344518,0,0,0.96669555,-607.214,-133.172)"
       gradientUnits="userSpaceOnUse"
       fx="840.77272"
       fy="197.86288">
      <stop
         offset="0"
         stop-color="#4d81d5"
         id="stop164" />
      <stop
         offset="1"
         stop-color="#0047ba"
         id="stop166" />
    </radialGradient>
  </defs>
  <g
     id="g175">
    <g
       class="b"
       clip-path="url(#a)"
       id="g173">
      <rect
         class="c"
         width="85.804001"
         height="94.415001"
         transform="translate(-1.33,-1.354)"
         id="rect171"
         style="fill:url(#b)"
         x="0"
         y="0" />
    </g>
  </g>
  <path
     class="d"
     d="M 38.894,30.888 H 32.469 L 28.153,50.45 24.558,30.89 h -7.526 l 6.679,31.191 h 7.823 l 4.116,-17.778 4.2,17.778 h 7.85 l 6.669,-31.193 h -7.5 l -3.6,19.562 z M 76.686,62.079 V 61.712 A 10.5,10.5 0 0 1 75.694,56.826 V 46.571 a 7.493,7.493 0 0 0 -2.661,-5.934 10.626,10.626 0 0 0 -7.049,-2.165 12.132,12.132 0 0 0 -7.341,2.095 6.474,6.474 0 0 0 -2.874,5.461 h 7.265 a 2.271,2.271 0 0 1 2.581,-2.539 q 2.783,0 2.779,3.2 v 1.223 h -2.239 a 14.361,14.361 0 0 0 -8.145,1.938 6.467,6.467 0 0 0 -2.8,5.7 6.271,6.271 0 0 0 2.313,4.974 8.3,8.3 0 0 0 5.6,1.981 6.755,6.755 0 0 0 5.592,-2.508 7.962,7.962 0 0 0 0.692,2.08 H 76.68 Z M 63.169,56.757 a 2.059,2.059 0 0 1 -0.674,-1.6 q 0,-3.384 3.794,-3.388 h 2.116 v 3.709 a 3.643,3.643 0 0 1 -1.285,1.308 4.11,4.11 0 0 1 -2.255,0.582 2.434,2.434 0 0 1 -1.7,-0.612 z"
     id="path177" />
  <path
     class="e"
     d="M 38.291,30.288 H 31.866 L 27.55,49.85 23.955,30.29 h -7.526 l 6.679,31.191 h 7.823 l 4.116,-17.778 4.2,17.778 h 7.85 l 6.669,-31.193 h -7.5 l -3.6,19.562 z M 76.083,61.479 V 61.112 A 10.5,10.5 0 0 1 75.091,56.226 V 45.971 a 7.493,7.493 0 0 0 -2.661,-5.934 10.626,10.626 0 0 0 -7.049,-2.165 12.132,12.132 0 0 0 -7.341,2.095 6.474,6.474 0 0 0 -2.874,5.461 h 7.265 a 2.271,2.271 0 0 1 2.581,-2.539 q 2.783,0 2.779,3.2 v 1.223 h -2.239 a 14.361,14.361 0 0 0 -8.145,1.938 6.467,6.467 0 0 0 -2.8,5.7 6.271,6.271 0 0 0 2.313,4.973 8.3,8.3 0 0 0 5.6,1.981 6.755,6.755 0 0 0 5.592,-2.508 7.963,7.963 0 0 0 0.692,2.08 h 7.273 z M 62.566,56.157 a 2.059,2.059 0 0 1 -0.674,-1.6 q 0,-3.384 3.794,-3.388 h 2.116 v 3.709 a 3.643,3.643 0 0 1 -1.285,1.308 4.11,4.11 0 0 1 -2.255,0.582 2.434,2.434 0 0 1 -1.7,-0.612 z"
     id="path179" />
  <path
     class="f"
     d="M 100.557,51.506 V 64.568 H 92.864 V 27.494 h 14.556 a 16.891,16.891 0 0 1 7.4,1.529 11.329,11.329 0 0 1 4.906,4.343 12.028,12.028 0 0 1 1.717,6.4 10.634,10.634 0 0 1 -3.753,8.6 q -3.753,3.153 -10.4,3.145 h -6.733 z m 0,-6.184 h 6.872 a 6.788,6.788 0 0 0 4.651,-1.425 5.175,5.175 0 0 0 1.607,-4.075 5.741,5.741 0 0 0 -6.068,-6.138 h -7.048 V 45.32 Z"
     id="path183"
     style="fill:#666666" />
  <path
     class="f"
     d="m 141.822,43.916 a 20.084,20.084 0 0 0 -2.666,-0.2 q -4.206,0 -5.511,2.825 v 18.031 h -7.407 V 37.015 h 7 l 0.2,3.287 a 6.863,6.863 0 0 1 6.177,-3.795 7.769,7.769 0 0 1 2.306,0.332 z"
     id="path185"
     style="fill:#666666" />
  <path
     class="f"
     d="m 143.31,50.541 a 16.244,16.244 0 0 1 1.591,-7.316 11.618,11.618 0 0 1 4.576,-4.966 13.419,13.419 0 0 1 6.93,-1.758 12.7,12.7 0 0 1 9.165,3.411 13.675,13.675 0 0 1 3.964,9.269 l 0.053,1.887 a 14.334,14.334 0 0 1 -3.559,10.173 13.863,13.863 0 0 1 -19.128,0.013 q -3.576,-3.818 -3.577,-10.389 v -0.332 z m 7.4,0.521 a 10.274,10.274 0 0 0 1.493,6.008 5.361,5.361 0 0 0 8.457,0.026 q 1.513,-2.051 1.513,-6.568 a 10.154,10.154 0 0 0 -1.513,-5.969 4.917,4.917 0 0 0 -4.248,-2.116 4.857,4.857 0 0 0 -4.206,2.1 q -1.492,2.1 -1.5,6.516 z"
     id="path187"
     style="fill:#666666" />
  <path
     class="f"
     d="m 200.542,65.081 a 13.654,13.654 0 0 1 -9.93,-3.717 13.173,13.173 0 0 1 -3.832,-9.907 v -0.716 a 16.62,16.62 0 0 1 1.608,-7.43 11.832,11.832 0 0 1 4.572,-5.044 12.915,12.915 0 0 1 6.754,-1.77 11.54,11.54 0 0 1 8.955,3.567 q 3.272,3.564 3.269,10.109 v 3.008 H 194.28 a 6.827,6.827 0 0 0 2.169,4.329 6.571,6.571 0 0 0 4.572,1.628 8.017,8.017 0 0 0 6.688,-3.08 l 3.642,4.049 a 11.087,11.087 0 0 1 -4.514,3.652 14.647,14.647 0 0 1 -6.295,1.322 z M 199.69,42.435 a 4.652,4.652 0 0 0 -3.576,1.486 7.624,7.624 0 0 0 -1.756,4.244 h 10.3 v -0.584 a 5.482,5.482 0 0 0 -1.327,-3.8 4.808,4.808 0 0 0 -3.646,-1.344 z"
     id="path189"
     style="fill:#666666" />
  <path
     class="f"
     d="m 227.68,59.144 a 4.882,4.882 0 0 0 3.33,-1.119 3.917,3.917 0 0 0 1.329,-2.981 h 6.944 a 9.394,9.394 0 0 1 -1.54,5.129 10.109,10.109 0 0 1 -4.14,3.619 13,13 0 0 1 -5.8,1.289 12.068,12.068 0 0 1 -9.38,-3.756 q -3.444,-3.76 -3.433,-10.375 v -0.481 a 14.638,14.638 0 0 1 3.406,-10.161 11.932,11.932 0 0 1 9.354,-3.795 11.724,11.724 0 0 1 8.346,2.942 10.378,10.378 0 0 1 3.191,7.831 h -6.944 a 5.052,5.052 0 0 0 -1.329,-3.5 4.971,4.971 0 0 0 -7.005,0.2 q -0.15,0.158 -0.286,0.329 -1.317,1.874 -1.317,6.087 v 0.768 c 0,2.838 0.439,4.882 1.31,6.119 a 4.511,4.511 0 0 0 3.964,1.855 z"
     id="path191"
     style="fill:#666666" />
  <path
     class="f"
     d="m 252.391,30.239 v 6.776 h 4.743 v 5.4 h -4.743 v 13.757 a 3.244,3.244 0 0 0 0.589,2.187 2.969,2.969 0 0 0 2.254,0.664 11.492,11.492 0 0 0 2.181,-0.182 v 5.578 a 15.308,15.308 0 0 1 -4.487,0.664 q -7.793,0 -7.946,-7.817 V 42.418 h -4.048 v -5.4 h 4.044 v -6.776 z"
     id="path193"
     style="fill:#666666" />
  <path
     class="g"
     d="m 261.613,60.956 a 3.7,3.7 0 0 1 1.194,-2.848 4.243,4.243 0 0 1 2.985,-1.094 4.287,4.287 0 0 1 3.014,1.094 3.7,3.7 0 0 1 1.192,2.851 3.65,3.65 0 0 1 -1.179,2.812 4.742,4.742 0 0 1 -6.027,0 3.625,3.625 0 0 1 -1.179,-2.815 z"
     id="path195"
     style="fill:url(#c)" />
  <g
     transform="translate(168.852,27.487)"
     id="g201"
     style="fill:#666666">
    <path
       class="f"
       d="m 573.9,123.476 v 29.058 a 9.826,9.826 0 0 1 -2.436,7.1 9.3,9.3 0 0 1 -7.022,2.532 15.306,15.306 0 0 1 -3.674,-0.43 V 155.9 a 13.651,13.651 0 0 0 2.332,0.229 q 3.36,0 3.361,-3.544 v -29.11 z"
       transform="translate(-560.768,-113.948)"
       id="path197"
       style="fill:#666666" />
    <path
       class="f"
       d="m 578.1,95.637 a 3.7,3.7 0 0 1 1.194,-2.847 4.24,4.24 0 0 1 2.985,-1.094 4.284,4.284 0 0 1 3.014,1.094 3.7,3.7 0 0 1 1.192,2.851 3.651,3.651 0 0 1 -1.179,2.812 4.743,4.743 0 0 1 -6.027,0 3.626,3.626 0 0 1 -1.179,-2.816 z"
       transform="translate(-572.878,-91.693)"
       id="path199"
       style="fill:#666666" />
  </g>
</svg>
